<?xml version="1.0" encoding="iso-8859-1"?>
<!-- Uploaded to: SVG Repo, www.svgrepo.com, Generator: SVG Repo Mixer Tools -->
<svg height="800px" width="800px" version="1.1" id="Layer_1" xmlns="http://www.w3.org/2000/svg" xmlns:xlink="http://www.w3.org/1999/xlink" 
	 viewBox="0 0 507.661 507.661" xml:space="preserve">
<g transform="translate(0 1)">
	<g>
		<path style="fill:#FFE100;" d="M405.571,241.983h6.942c20.827,0,38.183-14.753,40.786-35.58
			c2.603-23.431-15.62-42.522-39.051-42.522h-17.356c22.563,0,40.786-19.959,39.051-42.522c-1.736-20.827-19.959-35.58-40.786-35.58
			h-9.546v-0.868c19.092-2.603,33.844-19.959,32.976-39.919c-0.868-20.827-13.885-37.315-34.712-37.315h-8.678h-17.356
			c20.827,0,33.844,16.488,34.712,37.315c0.868,19.959-13.885,37.315-32.976,39.919v0.868h9.546
			c20.827,0,38.183,14.753,40.786,35.58c2.603,23.431-15.62,42.522-39.051,42.522h17.356c22.563,0,40.786,19.959,39.051,42.522
			c-1.736,19.959-19.959,35.58-40.786,35.58h-6.942c21.695,0,39.051,17.356,39.051,39.051c0,18.224-8.678,34.712-26.034,39.051
			h26.034c17.356-4.339,26.034-20.827,26.034-39.051C444.622,259.339,427.266,241.983,405.571,241.983"/>
		<path style="fill:#FFE100;" d="M271.062,7.678c-118.02,2.603-118.888,32.976-130.169,60.746"/>
		<path style="fill:#FFE100;" d="M401.232,206.403c-1.736,19.959-19.959,35.58-40.786,35.58h-6.942
			c21.695,0,39.051,17.356,39.051,39.051c0,18.224-8.678,34.712-26.034,39.051H262.384l7.81,44.258l6.942,32.108
			c10.414,39.051-11.281,83.309-42.522,97.193c-4.339,1.736-7.81,2.603-12.149,3.471c-14.753,2.603-19.092-5.207-20.827-6.942
			c-1.736-1.736-2.603-82.441-20.827-145.79c0,0-6.075-17.356-9.546-39.051h-4.339c-48.597,0-78.102-39.919-78.102-88.515v-96.325
			c0-39.919,21.695-72.895,60.746-79.837c9.546-1.736,6.075-6.075,13.885-12.149c6.075-4.339,17.356-8.678,30.373-11.281
			c19.959-5.207,39.919-8.678,60.746-9.546h68.556h8.678c20.827,0,33.844,16.488,34.712,37.315
			c0.868,19.959-13.885,37.315-32.976,39.919v0.868h9.546c19.959,0,38.183,14.753,40.786,35.58
			c2.603,23.431-15.62,42.522-39.051,42.522h17.356C384.744,163.881,402.968,183.841,401.232,206.403"/>
	</g>
	<path style="fill:#FFFFFF;" d="M88.825,216.817v-96.325c0-39.919,21.695-72.895,60.746-79.837
		c9.546-1.736,6.075-6.075,13.885-12.149c-7.81,6.075-16.488,10.414-26.034,12.149c-39.051,6.942-74.631,39.919-74.631,79.837
		v96.325c0,48.597,40.786,88.515,89.383,88.515h19.959h-5.207C118.33,305.332,88.825,265.414,88.825,216.817"/>
	<path style="fill:#FFA800;" d="M379.537,241.983h6.942c20.827,0,38.183-14.753,40.786-35.58
		c2.603-23.431-15.62-42.522-39.051-42.522h-17.356c22.563,0,40.786-19.959,39.051-42.522c-1.736-20.827-19.959-35.58-40.786-35.58
		h-9.546v-0.868c19.092-2.603,33.844-19.959,32.976-39.919c-0.868-20.827-13.885-37.315-34.712-37.315h-8.678h-17.356
		c20.827,0,33.844,16.488,34.712,37.315c0.868,19.959-13.885,37.315-32.976,39.919v0.868h9.546c20.827,0,38.183,14.753,40.786,35.58
		c2.603,23.431-15.62,42.522-39.051,42.522h17.356c22.563,0,40.786,19.959,39.051,42.522c-1.736,19.959-19.959,35.58-40.786,35.58
		h-6.942c21.695,0,39.051,17.356,39.051,39.051c0,18.224-8.678,34.712-26.034,39.051h26.034
		c17.356-4.339,26.034-20.827,26.034-39.051C418.588,259.339,401.232,241.983,379.537,241.983"/>
	<path d="M140.893,77.102c-0.868,0-2.603,0-3.471-0.868c-4.339-1.736-6.075-6.942-4.339-11.281c0.868-2.603,1.736-4.339,2.603-6.942
		C147.835,25.034,165.191,1.603,271.062-1l0,0c4.339,0,8.678,3.471,8.678,8.678s-3.471,8.678-8.678,8.678
		c-102.4,2.603-110.21,24.298-118.888,47.729c-0.868,2.603-1.736,5.207-2.603,7.81C147.835,75.366,144.364,77.102,140.893,77.102z"
		/>
	<path d="M217.259,505.793c-11.281,0-17.356-6.075-19.959-8.678c-4.339-2.603-4.339-4.339-5.207-24.298
		c-1.736-26.902-6.075-81.573-19.092-126.698c0,0-5.207-13.885-8.678-32.976h-12.149c-53.803,0.868-98.061-43.39-98.061-96.325
		v-26.902c0-5.207,3.471-8.678,8.678-8.678s8.678,3.471,8.678,8.678v26.902c0,44.258,36.447,79.837,80.705,79.837h19.959
		c4.339,0,7.81,3.471,8.678,7.81c3.471,20.827,8.678,37.315,8.678,37.315c13.017,46.861,17.356,103.268,19.092,130.169
		c0,5.207,0.868,11.281,0.868,13.885c1.736,1.736,4.339,4.339,11.281,2.603c4.339-0.868,7.81-1.736,10.414-3.471
		c25.166-11.281,46.861-51.2,37.315-86.78l-6.075-32.108l-8.678-44.258c-0.868-2.603,0-5.207,1.736-6.942s4.339-3.471,6.942-3.471
		h129.302c13.885-3.471,18.224-18.224,18.224-30.373c0-16.488-13.885-30.373-30.373-30.373c-5.207,0-8.678-3.471-8.678-8.678
		c0-5.207,3.471-8.678,8.678-8.678h6.942c16.488,0,30.373-12.149,32.108-27.77c0.868-8.678-1.736-17.356-7.81-23.431
		s-13.885-9.546-22.563-9.546h-17.356c-5.207,0-8.678-3.471-8.678-8.678c0-5.207,3.471-8.678,8.678-8.678
		c8.678,0,16.488-3.471,22.563-9.546c6.075-6.075,8.678-14.753,7.81-23.431c-1.736-15.62-15.62-27.769-32.108-27.769h-9.546
		c-4.339,0-7.81-3.471-8.678-7.81c0-4.339,2.603-9.546,6.942-10.414c15.62-2.603,26.034-15.62,26.034-31.241
		c-0.868-13.885-7.81-28.637-26.034-28.637h-102.4c-19.959,0-40.786,5.207-59.01,8.678c-17.356,4.339-24.298,7.81-27.769,10.414
		c-10.414,7.81-19.959,12.149-29.505,13.885c-32.976,6.075-67.688,33.844-67.688,71.159c0,5.207-3.471,8.678-8.678,8.678
		s-8.678-3.471-8.678-8.678c0-45.993,41.654-80.705,82.441-88.515c6.942-0.868,14.753-4.339,22.563-10.414
		c6.942-5.207,17.356-9.546,33.844-13.017C211.184,4.207,233.747-0.132,255.442-1h102.4c25.166,0,42.522,18.224,43.39,45.993
		c0.868,13.885-5.207,26.902-13.885,35.58c16.488,6.075,29.505,21.695,31.241,39.919c0.868,13.017-3.471,26.902-12.149,36.447
		c0,0.868-0.868,0.868-0.868,1.736c6.942,2.603,13.017,6.942,18.224,13.017c8.678,9.546,13.885,23.431,12.149,36.447
		c-1.736,15.62-11.281,29.505-25.166,37.315c10.414,8.678,16.488,21.695,16.488,36.447c0,24.298-13.017,42.522-32.976,47.729
		c-0.868,0-0.868,0-1.736,0H272.798l6.075,33.844l6.942,32.108c10.414,40.786-11.281,90.251-46.861,106.739
		c-5.207,2.603-10.414,3.471-13.885,4.339C222.466,505.793,219.862,505.793,217.259,505.793z"/>
	<path d="M71.469,155.203c0-5.207-3.471-8.678-8.678-8.678s-8.678,3.471-8.678,8.678c0,5.207,3.471,8.678,8.678,8.678
		S71.469,160.41,71.469,155.203"/>
	<path d="M366.52,94.458h-60.746c-5.207,0-8.678-3.471-8.678-8.678c0-5.207,3.471-8.678,8.678-8.678h60.746
		c5.207,0,8.678,3.471,8.678,8.678C375.198,90.986,371.727,94.458,366.52,94.458z"/>
	<path d="M375.198,172.559H323.13c-5.207,0-8.678-3.471-8.678-8.678c0-5.207,3.471-8.678,8.678-8.678h52.068
		c5.207,0,8.678,3.471,8.678,8.678C383.876,169.088,380.405,172.559,375.198,172.559z"/>
	<path d="M383.876,250.661h-86.78c-5.207,0-8.678-3.471-8.678-8.678c0-5.207,3.471-8.678,8.678-8.678h86.78
		c5.207,0,8.678,3.471,8.678,8.678C392.554,247.19,389.083,250.661,383.876,250.661z"/>
</g>
</svg>