<?xml version="1.0" encoding="iso-8859-1"?>
<!-- Uploaded to: SVG Repo, www.svgrepo.com, Generator: SVG Repo Mixer Tools -->
<svg height="800px" width="800px" version="1.1" id="Layer_1" xmlns="http://www.w3.org/2000/svg" xmlns:xlink="http://www.w3.org/1999/xlink" 
	 viewBox="0 0 507.597 507.597" xml:space="preserve">
<g transform="translate(0 1)">
	<path style="fill:#FFE100;" d="M401.267,299.194c-1.736-19.959-19.959-35.58-40.786-35.58h-6.942
		c21.695,0,39.051-17.356,39.051-39.051c0-9.546-4.339-18.224-11.281-25.166c-8.678-9.546-21.695-13.885-34.712-13.885h-85.044
		l7.81-44.258l6.942-32.108c10.414-39.051-11.281-83.308-42.522-97.193c-4.339-1.736-7.81-2.603-12.149-3.471
		c-14.753-2.603-19.092,5.207-20.827,6.942c-1.736,1.736-2.603,82.441-20.827,145.79c0,0-6.075,17.356-9.546,39.051h5.207
		c-46.861,0-86.78,39.919-86.78,88.515v99.797c0,39.919,31.241,71.159,71.159,75.498c10.414,0.868-5.207,6.075,3.471,13.017
		c6.075,5.207,18.224,8.678,33.844,12.149c19.092,4.339,38.183,7.81,58.142,8.678h67.688h0.868h1.736
		c20.827,0,39.919-16.488,40.786-37.315c0.868-19.959-13.885-37.315-32.976-39.919v-0.868h9.546
		c19.959,0,38.183-14.753,40.786-35.58c2.603-23.431-15.62-42.522-39.051-42.522h17.356
		C384.779,341.716,403.003,321.757,401.267,299.194"/>
	<path style="fill:#FFFFFF;" d="M160.019,464.075c-39.919-4.339-71.159-35.58-71.159-75.498v-99.797
		c0-48.597,39.919-88.515,88.515-88.515h-5.207h-19.092c-48.597,0-88.515,39.919-88.515,88.515v99.797
		c0,39.919,31.241,71.159,71.159,75.498c9.546,0.868,18.224,5.207,26.902,11.281C156.548,470.15,169.565,465.811,160.019,464.075"/>
	<path style="fill:#FFA800;" d="M427.301,299.194c-1.736-19.959-19.959-35.58-40.786-35.58h-6.942
		c21.695,0,39.051-17.356,39.051-39.051c0-9.546-4.339-18.224-11.281-25.166c-8.678-9.546-21.695-13.885-34.712-13.885h-26.034
		c13.017,0,26.034,4.339,34.712,13.885c6.942,6.942,11.281,15.62,11.281,25.166c0,21.695-17.356,39.051-39.051,39.051h6.942
		c19.959,0,38.183,14.753,40.786,35.58c2.603,23.431-15.62,42.522-39.051,42.522H344.86c22.563,0,40.786,19.959,39.051,42.522
		c-1.736,19.959-19.959,35.58-40.786,35.58h-9.546v0.868c19.092,2.603,33.844,19.959,32.976,39.919
		c-0.868,20.827-19.959,37.315-40.786,37.315h23.431h0.868h1.736c20.827,0,39.919-16.488,40.786-37.315
		c0.868-19.959-13.885-37.315-32.976-39.919v-0.868h9.546c19.959,0,38.183-14.753,40.786-35.58
		c2.603-23.431-15.62-42.522-39.051-42.522h17.356C410.813,341.716,429.036,321.757,427.301,299.194"/>
	<path style="fill:#FFE100;" d="M453.335,299.194c-1.736-19.959-19.959-35.58-40.786-35.58h-6.942
		c21.695,0,39.051-17.356,39.051-39.051c0-9.546-4.339-18.224-11.281-25.166c-8.678-9.546-21.695-13.885-34.712-13.885H372.63
		c13.017,0,26.034,4.339,34.712,13.885c6.942,6.942,11.281,15.62,11.281,25.166c0,21.695-17.356,39.051-39.051,39.051h6.942
		c19.959,0,38.183,14.753,40.786,35.58c2.603,23.431-15.62,42.522-39.051,42.522h-17.356c22.563,0,40.786,19.959,39.051,42.522
		c-1.736,19.959-19.959,35.58-40.786,35.58h-9.546v0.868c19.092,2.603,33.844,19.959,32.976,39.919
		c-0.868,20.827-19.959,37.315-40.786,37.315h23.431h0.868h1.736c20.827,0,39.919-16.488,40.786-37.315
		c0.868-19.959-13.885-37.315-32.976-39.919v-0.868h9.546c19.959,0,38.183-14.753,40.786-35.58
		c2.603-23.431-15.62-42.522-39.051-42.522h17.356C436.847,341.716,455.07,321.757,453.335,299.194"/>
	<path d="M162.623,484.903c-1.736,0-3.471-0.868-5.207-1.736c-13.885-10.414-18.224-26.902-24.298-49.464l-0.868-2.603
		c-0.868-4.339,1.736-9.546,6.075-10.414c4.339-0.868,9.546,1.736,10.414,6.075l0.868,1.736
		c5.207,20.827,8.678,33.844,17.356,39.919c3.471,2.603,4.339,8.678,1.736,12.149C167.83,483.167,165.226,484.903,162.623,484.903z"
		/>
	<path d="M351.803,506.597h-96.325c-20.827,0-40.786-4.339-59.878-8.678c-18.224-4.339-29.505-8.678-36.447-13.885
		c-8.678-6.075-16.488-10.414-24.298-11.281c-45.993-5.207-80.705-41.654-80.705-84.176v-3.471c0-5.207,3.471-8.678,8.678-8.678
		s8.678,3.471,8.678,8.678v3.471c0,33.844,27.769,62.481,64.217,67.688c10.414,0.868,21.695,6.075,32.976,13.885
		c3.471,2.603,11.281,6.075,30.373,10.414c18.224,4.339,37.315,7.81,56.407,8.678h96.325c17.356,0,31.241-13.017,32.108-29.505
		c0.868-15.62-10.414-28.637-26.034-31.241c-4.339-0.868-7.81-5.207-6.942-9.546s4.339-8.678,8.678-8.678h9.546
		c16.488,0,30.373-12.149,32.108-27.77c0.868-8.678-1.736-17.356-7.81-23.431s-13.885-9.546-22.563-9.546
		c-5.207,0-8.678-3.471-8.678-8.678c0-5.207,3.471-8.678,8.678-8.678h17.356c8.678,0,16.488-3.471,22.563-9.546
		c6.075-6.075,8.678-14.753,7.81-23.431c-1.736-15.62-15.62-27.77-32.108-27.77h-6.942c-5.207,0-8.678-3.471-8.678-8.678
		s3.471-8.678,8.678-8.678c16.488,0,30.373-13.885,30.373-30.373c0-6.075-2.603-13.017-8.678-19.092
		c-6.942-6.942-17.356-11.281-28.637-11.281h-110.21c-2.603,0-5.207-0.868-6.942-3.471c-1.736-0.868-1.736-3.471-1.736-6.075
		l7.81-44.258l6.942-32.976c9.546-35.58-12.149-75.498-37.315-86.78c-2.603-0.868-6.075-2.603-10.414-3.471
		c-6.942-1.736-9.546,0.868-11.281,2.603c0,2.603-0.868,8.678-0.868,13.885c-1.736,26.902-6.075,83.308-19.092,130.169
		c0,0.868-6.075,17.356-8.678,38.183c-0.868,4.339-4.339,7.81-8.678,7.81h-19.959c-44.258,0-80.705,35.58-80.705,79.837v26.902
		c0,5.207-3.471,8.678-8.678,8.678s-8.678-3.471-8.678-8.678v-26.902c0-53.803,44.258-97.193,98.061-97.193h12.149
		c3.471-18.224,8.678-32.108,8.678-32.976c13.017-44.258,16.488-99.797,18.224-125.831c1.736-19.959,1.736-21.695,6.075-24.298
		c2.603-3.471,11.281-12.149,27.77-8.678c6.075,0.868,10.414,2.603,13.885,4.339c35.58,16.488,58.142,66.82,46.861,107.607
		l-6.942,32.108l-6.075,32.976h99.797c16.488,0,31.241,6.075,40.786,16.488c8.678,8.678,13.017,19.959,13.017,31.241
		c0,14.753-6.942,27.77-16.488,36.447c13.885,7.81,23.431,20.827,25.166,37.315c0.868,13.017-3.471,26.902-12.149,36.447
		c-5.207,6.075-11.281,9.546-18.224,13.017c0,0,0.868,0.868,0.868,1.736c8.678,9.546,13.885,23.431,12.149,36.447
		c-1.736,18.224-13.885,32.976-31.241,39.919c9.546,9.546,14.753,21.695,13.885,35.58
		C400.399,485.77,377.836,506.597,351.803,506.597z"/>
	<path d="M71.504,350.394c0-5.207-3.471-8.678-8.678-8.678s-8.678,3.471-8.678,8.678c0,5.207,3.471,8.678,8.678,8.678
		S71.504,355.601,71.504,350.394"/>
	<path d="M383.911,272.292h-86.78c-5.207,0-8.678-3.471-8.678-8.678s3.471-8.678,8.678-8.678h86.78c5.207,0,8.678,3.471,8.678,8.678
		S389.118,272.292,383.911,272.292z"/>
	<path d="M383.911,350.394h-60.746c-5.207,0-8.678-3.471-8.678-8.678c0-5.207,3.471-8.678,8.678-8.678h60.746
		c5.207,0,8.678,3.471,8.678,8.678C392.589,346.923,389.118,350.394,383.911,350.394z"/>
	<path d="M366.555,428.496h-60.746c-5.207,0-8.678-3.471-8.678-8.678c0-5.207,3.471-8.678,8.678-8.678h60.746
		c5.207,0,8.678,3.471,8.678,8.678C375.233,425.025,371.762,428.496,366.555,428.496z"/>
</g>
</svg>